G04*
G04 #@! TF.GenerationSoftware,Altium Limited,Altium Designer,25.8.1 (18)*
G04*
G04 Layer_Color=32768*
%FSLAX43Y43*%
%MOMM*%
G71*
G04*
G04 #@! TF.SameCoordinates,C5D238D6-C719-4FEA-94BB-68492B5BFC98*
G04*
G04*
G04 #@! TF.FilePolarity,Positive*
G04*
G01*
G75*
%ADD10C,0.200*%
%ADD28C,0.100*%
%ADD29C,0.050*%
D10*
X36200Y13600D02*
X38600D01*
Y12400D02*
Y13600D01*
X36200Y12400D02*
X38600D01*
X36200D02*
Y13600D01*
X36400Y9400D02*
Y10600D01*
Y9400D02*
X38800D01*
Y10600D01*
X36400D02*
X38800D01*
D28*
X39000Y3500D02*
Y4500D01*
X38500Y4000D02*
X39500D01*
X36000Y3500D02*
Y4500D01*
X35500Y4000D02*
X36500D01*
X33000Y3500D02*
Y4500D01*
X32500Y4000D02*
X33500D01*
X42000Y3500D02*
Y4500D01*
X41500Y4000D02*
X42500D01*
X42000Y9500D02*
Y10500D01*
X41500Y10000D02*
X42500D01*
X34000Y9500D02*
Y10500D01*
X33500Y10000D02*
X34500D01*
D29*
X38150Y5350D02*
X39850D01*
X38150Y2650D02*
X39850D01*
Y5350D01*
X38150Y2650D02*
Y5350D01*
X35000Y5700D02*
X37000D01*
X35000Y2300D02*
X37000D01*
Y5700D01*
X35000Y2300D02*
Y5700D01*
X32150Y5350D02*
X33850D01*
X32150Y2650D02*
X33850D01*
Y5350D01*
X32150Y2650D02*
Y5350D01*
X41000Y5700D02*
X43000D01*
X41000Y2300D02*
X43000D01*
Y5700D01*
X41000Y2300D02*
Y5700D01*
X27505Y4775D02*
Y10685D01*
Y4775D02*
X30495D01*
Y10685D01*
X27505D02*
X30495D01*
X39550Y7550D02*
Y12450D01*
Y7550D02*
X43435D01*
X39550Y12450D02*
X43435D01*
Y7550D02*
Y12450D01*
X31550Y7550D02*
Y12450D01*
Y7550D02*
X35435D01*
X31550Y12450D02*
X35435D01*
Y7550D02*
Y12450D01*
M02*
