G04*
G04 #@! TF.GenerationSoftware,Altium Limited,Altium Designer,25.8.1 (18)*
G04*
G04 Layer_Physical_Order=1*
G04 Layer_Color=255*
%FSLAX43Y43*%
%MOMM*%
G71*
G04*
G04 #@! TF.SameCoordinates,C5D238D6-C719-4FEA-94BB-68492B5BFC98*
G04*
G04*
G04 #@! TF.FilePolarity,Positive*
G04*
G01*
G75*
%ADD12C,0.254*%
%ADD13R,0.750X0.900*%
%ADD14R,1.350X0.950*%
%ADD15R,1.450X1.150*%
%ADD18R,1.050X1.050*%
%ADD19C,1.050*%
%ADD23C,1.550*%
%ADD24R,1.550X1.550*%
%ADD25C,6.000*%
%ADD26C,1.270*%
D12*
X38000Y12925D02*
X38925Y12000D01*
X39000D01*
X38000Y12925D02*
Y13000D01*
X36000Y4875D02*
Y7000D01*
X38200Y10000D02*
X42000D01*
X37000Y9925D02*
Y9978D01*
X34000Y8730D02*
X35805D01*
X37000Y9925D01*
X36267Y13831D02*
X39439D01*
X35210Y12774D02*
X36267Y13831D01*
X35210Y12480D02*
Y12774D01*
X34000Y11270D02*
X35210Y12480D01*
X39439Y13831D02*
X42000Y11270D01*
X36800Y11800D02*
Y12925D01*
X35000Y10000D02*
X36800Y11800D01*
X39000Y4775D02*
Y5730D01*
X42000Y8730D01*
X34000Y10000D02*
X35000D01*
X36477Y12677D02*
X36552D01*
X36800Y12925D01*
Y13000D01*
X33200Y4775D02*
X34000Y5575D01*
X33000Y4775D02*
X33200D01*
X34000Y5575D02*
Y8730D01*
X36752Y9730D02*
X37000Y9978D01*
Y10000D01*
X29000Y9000D02*
X31270Y11270D01*
X34000D01*
X38200Y10000D02*
Y10075D01*
X42579Y9636D02*
X42683D01*
X42150Y4875D02*
X42906Y5631D01*
X42000Y10000D02*
X42215D01*
X42579Y9636D01*
X42683D02*
X42906Y9413D01*
Y5631D02*
Y9413D01*
X42000Y4875D02*
X42150D01*
X39000Y3225D02*
X39100Y3125D01*
X42000D01*
X38900D02*
X39000Y3225D01*
X36000Y3125D02*
X38900D01*
X33000Y3225D02*
X33100Y3125D01*
X36000D01*
X31887Y3573D02*
X32652D01*
X29000Y6460D02*
X31887Y3573D01*
X32652D02*
X33000Y3225D01*
D13*
X36800Y13000D02*
D03*
X38000D02*
D03*
X38200Y10000D02*
D03*
X37000D02*
D03*
D14*
X39000Y4775D02*
D03*
Y3225D02*
D03*
X33000Y4775D02*
D03*
Y3225D02*
D03*
D15*
X36000Y4875D02*
D03*
Y3125D02*
D03*
X42000Y4875D02*
D03*
Y3125D02*
D03*
D18*
Y8730D02*
D03*
X34000D02*
D03*
D19*
Y10000D02*
D03*
X42000D02*
D03*
Y11270D02*
D03*
X34000D02*
D03*
D23*
X29000Y9000D02*
D03*
D24*
Y6460D02*
D03*
D25*
X70000Y70000D02*
D03*
Y5000D02*
D03*
X5000D02*
D03*
Y70000D02*
D03*
D26*
X39000Y12000D02*
D03*
X36000Y7000D02*
D03*
M02*
