G04*
G04 #@! TF.GenerationSoftware,Altium Limited,Altium Designer,25.8.1 (18)*
G04*
G04 Layer_Color=128*
%FSLAX43Y43*%
%MOMM*%
G71*
G04*
G04 #@! TF.SameCoordinates,C5D238D6-C719-4FEA-94BB-68492B5BFC98*
G04*
G04*
G04 #@! TF.FilePolarity,Positive*
G04*
G01*
G75*
%ADD30C,0.127*%
D30*
X41600Y8730D02*
X42400D01*
X42000Y8330D02*
Y9130D01*
X33600Y10000D02*
X34400D01*
X34000Y9600D02*
Y10400D01*
X28490Y9000D02*
X29510D01*
X29000Y8490D02*
Y9510D01*
X28490Y6460D02*
X29510D01*
X29000Y5950D02*
Y6970D01*
X41600Y10000D02*
X42400D01*
X42000Y9600D02*
Y10400D01*
X41600Y11270D02*
X42400D01*
X42000Y10870D02*
Y11670D01*
X33600Y8730D02*
X34400D01*
X34000Y8330D02*
Y9130D01*
X33600Y11270D02*
X34400D01*
X34000Y10870D02*
Y11670D01*
X68350Y70000D02*
X71650D01*
X70000Y68350D02*
Y71650D01*
X68350Y5000D02*
X71650D01*
X70000Y3350D02*
Y6650D01*
X3350Y5000D02*
X6650D01*
X5000Y3350D02*
Y6650D01*
X3350Y70000D02*
X6650D01*
X5000Y68350D02*
Y71650D01*
X38645Y12000D02*
X39355D01*
X39000Y11644D02*
Y12356D01*
X35645Y7000D02*
X36355D01*
X36000Y6644D02*
Y7356D01*
M02*
