G04*
G04 #@! TF.GenerationSoftware,Altium Limited,Altium Designer,25.8.1 (18)*
G04*
G04 Layer_Color=16711935*
%FSLAX43Y43*%
%MOMM*%
G71*
G04*
G04 #@! TF.SameCoordinates,C5D238D6-C719-4FEA-94BB-68492B5BFC98*
G04*
G04*
G04 #@! TF.FilePolarity,Positive*
G04*
G01*
G75*
%ADD12C,0.254*%
%ADD27C,0.152*%
D12*
X77000Y1524D02*
X77508Y0D01*
X78016Y1524D01*
X77508Y75000D02*
X78016Y73476D01*
X77000D02*
X77508Y75000D01*
Y0D02*
Y33132D01*
Y41055D02*
Y75000D01*
X75000Y0D02*
X77762D01*
X75000Y75000D02*
X77762D01*
X5000Y80356D02*
X6524Y80864D01*
X5000Y80356D02*
X6524Y79848D01*
X68476D02*
X70000Y80356D01*
X68476Y80864D02*
X70000Y80356D01*
X5000D02*
X33132D01*
X41055D02*
X70000D01*
X5000Y73356D02*
Y80610D01*
X70000Y73356D02*
Y80610D01*
X73476Y-3464D02*
X75000Y-2956D01*
X73476Y-2448D02*
X75000Y-2956D01*
X0D02*
X1524Y-2448D01*
X0Y-2956D02*
X1524Y-3464D01*
X41055Y-2956D02*
X75000D01*
X0D02*
X33132D01*
X75000Y-3210D02*
Y0D01*
X0Y-3210D02*
Y0D01*
D27*
X77153Y33539D02*
Y34554D01*
X77406D01*
X78422Y33539D01*
X78676D01*
X77153Y36078D02*
Y35062D01*
X77914D01*
X77660Y35570D01*
Y35824D01*
X77914Y36078D01*
X78422D01*
X78676Y35824D01*
Y35316D01*
X78422Y35062D01*
X78930Y36840D02*
X78676Y37094D01*
X78422D01*
Y36840D01*
X78676D01*
Y37094D01*
X78930Y36840D01*
X79184Y36586D01*
X77406Y38109D02*
X77153Y38363D01*
Y38871D01*
X77406Y39125D01*
X78422D01*
X78676Y38871D01*
Y38363D01*
X78422Y38109D01*
X77406D01*
Y39633D02*
X77153Y39887D01*
Y40395D01*
X77406Y40648D01*
X78422D01*
X78676Y40395D01*
Y39887D01*
X78422Y39633D01*
X77406D01*
X34554Y80711D02*
X34047Y80458D01*
X33539Y79950D01*
Y79442D01*
X33793Y79188D01*
X34300D01*
X34554Y79442D01*
Y79696D01*
X34300Y79950D01*
X33539D01*
X36078Y80711D02*
X35062D01*
Y79950D01*
X35570Y80204D01*
X35824D01*
X36078Y79950D01*
Y79442D01*
X35824Y79188D01*
X35316D01*
X35062Y79442D01*
X36840Y78934D02*
X37094Y79188D01*
Y79442D01*
X36840D01*
Y79188D01*
X37094D01*
X36840Y78934D01*
X36586Y78680D01*
X38109Y80458D02*
X38363Y80711D01*
X38871D01*
X39125Y80458D01*
Y79442D01*
X38871Y79188D01*
X38363D01*
X38109Y79442D01*
Y80458D01*
X39633D02*
X39887Y80711D01*
X40395D01*
X40648Y80458D01*
Y79442D01*
X40395Y79188D01*
X39887D01*
X39633Y79442D01*
Y80458D01*
X33539Y-2601D02*
X34554D01*
Y-2854D01*
X33539Y-3870D01*
Y-4124D01*
X36078Y-2601D02*
X35062D01*
Y-3362D01*
X35570Y-3108D01*
X35824D01*
X36078Y-3362D01*
Y-3870D01*
X35824Y-4124D01*
X35316D01*
X35062Y-3870D01*
X36840Y-4378D02*
X37094Y-4124D01*
Y-3870D01*
X36840D01*
Y-4124D01*
X37094D01*
X36840Y-4378D01*
X36586Y-4632D01*
X38109Y-2854D02*
X38363Y-2601D01*
X38871D01*
X39125Y-2854D01*
Y-3870D01*
X38871Y-4124D01*
X38363D01*
X38109Y-3870D01*
Y-2854D01*
X39633D02*
X39887Y-2601D01*
X40395D01*
X40648Y-2854D01*
Y-3870D01*
X40395Y-4124D01*
X39887D01*
X39633Y-3870D01*
Y-2854D01*
M02*
