G04*
G04 #@! TF.GenerationSoftware,Altium Limited,Altium Designer,25.8.1 (18)*
G04*
G04 Layer_Color=16711935*
%FSLAX43Y43*%
%MOMM*%
G71*
G04*
G04 #@! TF.SameCoordinates,C5D238D6-C719-4FEA-94BB-68492B5BFC98*
G04*
G04*
G04 #@! TF.FilePolarity,Positive*
G04*
G01*
G75*
%ADD10C,0.200*%
%ADD28C,0.100*%
D10*
X36525Y13475D02*
X38275D01*
Y12525D02*
Y13475D01*
X36525Y12525D02*
X38275D01*
X36525D02*
Y13475D01*
X36725Y9525D02*
Y10475D01*
Y9525D02*
X38475D01*
Y10475D01*
X36725D02*
X38475D01*
D28*
X43335Y11934D02*
G03*
X43335Y8066I-1335J-1934D01*
G01*
X35335Y11934D02*
G03*
X35335Y8066I-1335J-1934D01*
G01*
X38275Y5100D02*
X39725D01*
X38275Y2900D02*
X39725D01*
Y5100D01*
X38275Y2900D02*
Y5100D01*
X35275D02*
X36725D01*
X35275Y2900D02*
X36725D01*
Y5100D01*
X35275Y2900D02*
Y5100D01*
X32275D02*
X33725D01*
X32275Y2900D02*
X33725D01*
Y5100D01*
X32275Y2900D02*
Y5100D01*
X41275D02*
X42725D01*
X41275Y2900D02*
X42725D01*
Y5100D01*
X41275Y2900D02*
Y5100D01*
X27730Y5000D02*
Y10460D01*
Y5000D02*
X30270D01*
Y10460D01*
X27730D02*
X30270D01*
X43335Y8066D02*
Y11934D01*
X35335Y8066D02*
Y11934D01*
M02*
