G04*
G04 #@! TF.GenerationSoftware,Altium Limited,Altium Designer,25.8.1 (18)*
G04*
G04 Layer_Color=16711935*
%FSLAX43Y43*%
%MOMM*%
G71*
G04*
G04 #@! TF.SameCoordinates,C5D238D6-C719-4FEA-94BB-68492B5BFC98*
G04*
G04*
G04 #@! TF.FilePolarity,Positive*
G04*
G01*
G75*
%ADD10C,0.200*%
G36*
X37710Y13659D02*
X37717D01*
X37725Y13658D01*
X37734Y13657D01*
X37745Y13656D01*
X37757Y13654D01*
X37769Y13651D01*
X37782Y13648D01*
X37795Y13644D01*
X37809Y13639D01*
X37822Y13633D01*
X37836Y13627D01*
X37849Y13620D01*
X37862Y13611D01*
X37862Y13610D01*
X37865Y13609D01*
X37868Y13606D01*
X37872Y13602D01*
X37878Y13597D01*
X37884Y13591D01*
X37891Y13584D01*
X37898Y13575D01*
X37905Y13566D01*
X37913Y13556D01*
X37920Y13544D01*
X37928Y13532D01*
X37935Y13519D01*
X37942Y13505D01*
X37948Y13489D01*
X37953Y13473D01*
X37870Y13454D01*
Y13455D01*
X37869Y13457D01*
X37868Y13461D01*
X37866Y13466D01*
X37863Y13471D01*
X37861Y13478D01*
X37857Y13485D01*
X37853Y13493D01*
X37844Y13509D01*
X37833Y13526D01*
X37827Y13534D01*
X37820Y13542D01*
X37813Y13549D01*
X37805Y13555D01*
X37805Y13556D01*
X37804Y13557D01*
X37801Y13558D01*
X37798Y13560D01*
X37794Y13563D01*
X37789Y13565D01*
X37783Y13569D01*
X37777Y13571D01*
X37769Y13574D01*
X37761Y13578D01*
X37752Y13580D01*
X37743Y13583D01*
X37733Y13585D01*
X37722Y13586D01*
X37711Y13587D01*
X37699Y13587D01*
X37692D01*
X37687Y13587D01*
X37680Y13586D01*
X37673Y13586D01*
X37665Y13585D01*
X37656Y13583D01*
X37646Y13581D01*
X37636Y13579D01*
X37626Y13576D01*
X37616Y13573D01*
X37606Y13569D01*
X37595Y13564D01*
X37585Y13558D01*
X37576Y13552D01*
X37576Y13551D01*
X37574Y13550D01*
X37572Y13548D01*
X37568Y13545D01*
X37564Y13542D01*
X37559Y13538D01*
X37554Y13533D01*
X37549Y13527D01*
X37543Y13520D01*
X37537Y13513D01*
X37532Y13506D01*
X37526Y13497D01*
X37521Y13488D01*
X37516Y13478D01*
X37511Y13468D01*
X37507Y13457D01*
Y13457D01*
X37506Y13455D01*
X37505Y13451D01*
X37504Y13447D01*
X37502Y13442D01*
X37501Y13435D01*
X37499Y13428D01*
X37497Y13420D01*
X37495Y13411D01*
X37493Y13401D01*
X37491Y13391D01*
X37490Y13381D01*
X37488Y13358D01*
X37487Y13335D01*
Y13334D01*
Y13332D01*
Y13327D01*
X37487Y13321D01*
Y13314D01*
X37488Y13306D01*
X37489Y13297D01*
X37490Y13287D01*
X37491Y13276D01*
X37492Y13265D01*
X37497Y13241D01*
X37502Y13216D01*
X37510Y13193D01*
X37511Y13192D01*
X37511Y13190D01*
X37513Y13187D01*
X37515Y13183D01*
X37517Y13178D01*
X37520Y13172D01*
X37524Y13166D01*
X37528Y13159D01*
X37533Y13152D01*
X37538Y13144D01*
X37545Y13137D01*
X37551Y13129D01*
X37558Y13122D01*
X37566Y13115D01*
X37575Y13109D01*
X37584Y13102D01*
X37584Y13102D01*
X37586Y13101D01*
X37589Y13100D01*
X37593Y13098D01*
X37597Y13096D01*
X37603Y13093D01*
X37609Y13090D01*
X37616Y13087D01*
X37624Y13085D01*
X37633Y13082D01*
X37641Y13080D01*
X37651Y13077D01*
X37671Y13074D01*
X37682Y13073D01*
X37692Y13073D01*
X37696D01*
X37699Y13073D01*
X37704D01*
X37710Y13074D01*
X37717Y13075D01*
X37726Y13076D01*
X37734Y13078D01*
X37743Y13080D01*
X37753Y13082D01*
X37763Y13086D01*
X37773Y13090D01*
X37783Y13094D01*
X37793Y13100D01*
X37803Y13106D01*
X37813Y13113D01*
X37813Y13113D01*
X37815Y13115D01*
X37817Y13117D01*
X37820Y13121D01*
X37825Y13125D01*
X37829Y13130D01*
X37834Y13136D01*
X37840Y13143D01*
X37845Y13152D01*
X37851Y13161D01*
X37856Y13171D01*
X37862Y13182D01*
X37867Y13193D01*
X37872Y13206D01*
X37876Y13220D01*
X37880Y13234D01*
X37964Y13213D01*
Y13213D01*
X37964Y13212D01*
Y13210D01*
X37963Y13209D01*
X37961Y13203D01*
X37959Y13196D01*
X37956Y13187D01*
X37952Y13177D01*
X37948Y13166D01*
X37942Y13154D01*
X37936Y13142D01*
X37929Y13128D01*
X37922Y13115D01*
X37913Y13102D01*
X37903Y13089D01*
X37892Y13077D01*
X37881Y13065D01*
X37868Y13054D01*
X37868Y13054D01*
X37865Y13052D01*
X37861Y13049D01*
X37856Y13046D01*
X37850Y13042D01*
X37841Y13037D01*
X37832Y13032D01*
X37821Y13027D01*
X37810Y13022D01*
X37797Y13017D01*
X37783Y13013D01*
X37768Y13008D01*
X37752Y13005D01*
X37736Y13002D01*
X37718Y13001D01*
X37700Y13000D01*
X37695D01*
X37690Y13001D01*
X37682D01*
X37674Y13001D01*
X37664Y13002D01*
X37652Y13003D01*
X37640Y13005D01*
X37627Y13007D01*
X37613Y13010D01*
X37599Y13013D01*
X37585Y13018D01*
X37571Y13022D01*
X37558Y13028D01*
X37545Y13034D01*
X37532Y13042D01*
X37531Y13042D01*
X37529Y13044D01*
X37526Y13046D01*
X37521Y13049D01*
X37516Y13054D01*
X37510Y13059D01*
X37502Y13065D01*
X37495Y13073D01*
X37487Y13081D01*
X37479Y13090D01*
X37471Y13100D01*
X37463Y13111D01*
X37455Y13122D01*
X37447Y13135D01*
X37440Y13149D01*
X37433Y13163D01*
X37433Y13164D01*
X37432Y13167D01*
X37430Y13171D01*
X37428Y13177D01*
X37425Y13184D01*
X37423Y13193D01*
X37420Y13203D01*
X37417Y13215D01*
X37413Y13227D01*
X37411Y13240D01*
X37408Y13254D01*
X37405Y13269D01*
X37403Y13285D01*
X37402Y13301D01*
X37401Y13317D01*
X37400Y13334D01*
Y13335D01*
Y13336D01*
Y13339D01*
Y13344D01*
X37401Y13351D01*
X37401Y13360D01*
X37402Y13370D01*
X37403Y13381D01*
X37405Y13394D01*
X37407Y13407D01*
X37409Y13421D01*
X37412Y13435D01*
X37416Y13450D01*
X37420Y13465D01*
X37425Y13480D01*
X37431Y13494D01*
X37438Y13508D01*
X37438Y13509D01*
X37439Y13512D01*
X37442Y13516D01*
X37445Y13520D01*
X37449Y13527D01*
X37454Y13534D01*
X37459Y13542D01*
X37465Y13550D01*
X37473Y13559D01*
X37481Y13569D01*
X37490Y13578D01*
X37500Y13587D01*
X37510Y13596D01*
X37521Y13605D01*
X37533Y13614D01*
X37546Y13621D01*
X37547Y13622D01*
X37549Y13623D01*
X37553Y13625D01*
X37558Y13627D01*
X37565Y13630D01*
X37573Y13633D01*
X37582Y13637D01*
X37592Y13641D01*
X37603Y13645D01*
X37615Y13648D01*
X37628Y13651D01*
X37641Y13654D01*
X37655Y13657D01*
X37670Y13658D01*
X37685Y13659D01*
X37701Y13660D01*
X37705D01*
X37710Y13659D01*
D02*
G37*
G36*
X38257Y13651D02*
X38263D01*
X38271Y13649D01*
X38280Y13648D01*
X38290Y13647D01*
X38301Y13645D01*
X38313Y13642D01*
X38324Y13639D01*
X38336Y13635D01*
X38349Y13630D01*
X38361Y13624D01*
X38372Y13617D01*
X38383Y13609D01*
X38394Y13600D01*
X38394Y13600D01*
X38396Y13598D01*
X38399Y13595D01*
X38402Y13591D01*
X38407Y13586D01*
X38411Y13580D01*
X38416Y13573D01*
X38421Y13565D01*
X38426Y13556D01*
X38430Y13547D01*
X38435Y13537D01*
X38439Y13525D01*
X38443Y13514D01*
X38445Y13501D01*
X38447Y13488D01*
X38448Y13474D01*
Y13473D01*
Y13472D01*
Y13470D01*
Y13467D01*
X38447Y13464D01*
Y13460D01*
X38445Y13450D01*
X38444Y13439D01*
X38441Y13426D01*
X38437Y13412D01*
X38432Y13398D01*
Y13398D01*
X38431Y13396D01*
X38430Y13394D01*
X38429Y13392D01*
X38427Y13388D01*
X38425Y13384D01*
X38422Y13380D01*
X38419Y13375D01*
X38412Y13363D01*
X38403Y13350D01*
X38392Y13336D01*
X38380Y13321D01*
X38379Y13320D01*
X38378Y13319D01*
X38376Y13316D01*
X38373Y13313D01*
X38368Y13309D01*
X38363Y13304D01*
X38358Y13298D01*
X38351Y13291D01*
X38343Y13283D01*
X38334Y13275D01*
X38325Y13266D01*
X38314Y13256D01*
X38302Y13245D01*
X38289Y13234D01*
X38275Y13221D01*
X38259Y13208D01*
X38259Y13208D01*
X38256Y13205D01*
X38253Y13203D01*
X38248Y13199D01*
X38242Y13194D01*
X38236Y13188D01*
X38229Y13182D01*
X38222Y13176D01*
X38206Y13163D01*
X38191Y13149D01*
X38185Y13143D01*
X38178Y13137D01*
X38173Y13132D01*
X38169Y13128D01*
X38167Y13127D01*
X38165Y13125D01*
X38161Y13120D01*
X38157Y13115D01*
X38152Y13109D01*
X38146Y13101D01*
X38141Y13094D01*
X38136Y13086D01*
X38449D01*
Y13011D01*
X38027D01*
Y13011D01*
Y13012D01*
Y13013D01*
Y13015D01*
Y13021D01*
X38027Y13028D01*
X38028Y13036D01*
X38030Y13045D01*
X38032Y13055D01*
X38036Y13065D01*
Y13065D01*
X38036Y13067D01*
X38037Y13069D01*
X38039Y13072D01*
X38041Y13076D01*
X38043Y13081D01*
X38045Y13086D01*
X38048Y13091D01*
X38055Y13105D01*
X38064Y13118D01*
X38075Y13134D01*
X38087Y13149D01*
X38088Y13150D01*
X38089Y13151D01*
X38091Y13154D01*
X38094Y13157D01*
X38098Y13161D01*
X38102Y13166D01*
X38107Y13171D01*
X38113Y13177D01*
X38120Y13184D01*
X38128Y13191D01*
X38136Y13199D01*
X38145Y13208D01*
X38155Y13216D01*
X38166Y13226D01*
X38177Y13236D01*
X38190Y13246D01*
X38190D01*
X38191Y13247D01*
X38194Y13250D01*
X38200Y13254D01*
X38206Y13260D01*
X38215Y13267D01*
X38224Y13276D01*
X38235Y13285D01*
X38246Y13295D01*
X38258Y13306D01*
X38270Y13317D01*
X38282Y13328D01*
X38293Y13339D01*
X38304Y13350D01*
X38314Y13362D01*
X38322Y13372D01*
X38330Y13382D01*
X38331Y13382D01*
X38332Y13384D01*
X38334Y13386D01*
X38336Y13390D01*
X38339Y13394D01*
X38342Y13400D01*
X38345Y13405D01*
X38349Y13412D01*
X38355Y13426D01*
X38361Y13442D01*
X38363Y13451D01*
X38365Y13459D01*
X38366Y13467D01*
X38367Y13476D01*
Y13476D01*
Y13478D01*
Y13480D01*
X38366Y13483D01*
X38366Y13487D01*
X38365Y13492D01*
X38364Y13497D01*
X38363Y13503D01*
X38358Y13516D01*
X38356Y13522D01*
X38353Y13528D01*
X38349Y13535D01*
X38345Y13542D01*
X38340Y13548D01*
X38334Y13554D01*
X38333Y13555D01*
X38332Y13556D01*
X38330Y13557D01*
X38327Y13559D01*
X38324Y13561D01*
X38320Y13564D01*
X38316Y13568D01*
X38310Y13570D01*
X38304Y13573D01*
X38298Y13576D01*
X38290Y13579D01*
X38283Y13581D01*
X38275Y13584D01*
X38266Y13585D01*
X38257Y13586D01*
X38247Y13586D01*
X38241D01*
X38237Y13586D01*
X38233Y13585D01*
X38227Y13585D01*
X38221Y13584D01*
X38214Y13582D01*
X38200Y13578D01*
X38192Y13575D01*
X38185Y13572D01*
X38177Y13568D01*
X38170Y13563D01*
X38163Y13558D01*
X38156Y13552D01*
X38156Y13551D01*
X38155Y13550D01*
X38153Y13549D01*
X38151Y13546D01*
X38149Y13542D01*
X38146Y13538D01*
X38143Y13533D01*
X38140Y13528D01*
X38136Y13521D01*
X38133Y13514D01*
X38130Y13506D01*
X38128Y13498D01*
X38126Y13489D01*
X38124Y13479D01*
X38123Y13469D01*
X38123Y13458D01*
X38042Y13466D01*
Y13467D01*
X38042Y13470D01*
X38043Y13475D01*
X38044Y13481D01*
X38045Y13488D01*
X38047Y13497D01*
X38049Y13507D01*
X38052Y13517D01*
X38056Y13528D01*
X38060Y13539D01*
X38065Y13551D01*
X38071Y13562D01*
X38078Y13574D01*
X38085Y13584D01*
X38094Y13594D01*
X38103Y13604D01*
X38104Y13604D01*
X38106Y13606D01*
X38109Y13608D01*
X38113Y13611D01*
X38119Y13615D01*
X38125Y13618D01*
X38133Y13623D01*
X38142Y13627D01*
X38151Y13632D01*
X38162Y13636D01*
X38175Y13640D01*
X38187Y13644D01*
X38201Y13647D01*
X38216Y13649D01*
X38232Y13651D01*
X38248Y13651D01*
X38252D01*
X38257Y13651D01*
D02*
G37*
G36*
X37910Y10659D02*
X37917D01*
X37925Y10658D01*
X37934Y10657D01*
X37945Y10656D01*
X37957Y10654D01*
X37969Y10651D01*
X37982Y10648D01*
X37995Y10644D01*
X38009Y10639D01*
X38022Y10633D01*
X38036Y10627D01*
X38049Y10620D01*
X38062Y10611D01*
X38062Y10610D01*
X38065Y10609D01*
X38068Y10606D01*
X38072Y10602D01*
X38078Y10597D01*
X38084Y10591D01*
X38091Y10584D01*
X38098Y10575D01*
X38105Y10566D01*
X38113Y10556D01*
X38120Y10544D01*
X38128Y10532D01*
X38135Y10519D01*
X38142Y10505D01*
X38148Y10489D01*
X38153Y10473D01*
X38070Y10454D01*
Y10455D01*
X38069Y10457D01*
X38068Y10461D01*
X38066Y10466D01*
X38063Y10471D01*
X38061Y10478D01*
X38057Y10485D01*
X38053Y10493D01*
X38044Y10509D01*
X38033Y10526D01*
X38027Y10534D01*
X38020Y10542D01*
X38013Y10549D01*
X38005Y10555D01*
X38005Y10556D01*
X38004Y10557D01*
X38001Y10558D01*
X37998Y10560D01*
X37994Y10563D01*
X37989Y10565D01*
X37983Y10569D01*
X37977Y10571D01*
X37969Y10574D01*
X37961Y10578D01*
X37952Y10580D01*
X37943Y10583D01*
X37933Y10585D01*
X37922Y10586D01*
X37911Y10587D01*
X37899Y10587D01*
X37892D01*
X37887Y10587D01*
X37880Y10586D01*
X37873Y10586D01*
X37865Y10585D01*
X37856Y10583D01*
X37846Y10581D01*
X37836Y10579D01*
X37826Y10576D01*
X37816Y10573D01*
X37806Y10569D01*
X37795Y10564D01*
X37785Y10558D01*
X37776Y10552D01*
X37776Y10551D01*
X37774Y10550D01*
X37772Y10548D01*
X37768Y10545D01*
X37764Y10542D01*
X37759Y10538D01*
X37754Y10533D01*
X37749Y10527D01*
X37743Y10520D01*
X37737Y10513D01*
X37732Y10506D01*
X37726Y10497D01*
X37721Y10488D01*
X37716Y10478D01*
X37711Y10468D01*
X37707Y10457D01*
Y10457D01*
X37706Y10455D01*
X37705Y10451D01*
X37704Y10447D01*
X37702Y10442D01*
X37701Y10435D01*
X37699Y10428D01*
X37697Y10420D01*
X37695Y10411D01*
X37693Y10401D01*
X37691Y10391D01*
X37690Y10381D01*
X37688Y10358D01*
X37687Y10335D01*
Y10334D01*
Y10332D01*
Y10327D01*
X37687Y10321D01*
Y10314D01*
X37688Y10306D01*
X37689Y10297D01*
X37690Y10287D01*
X37691Y10276D01*
X37692Y10265D01*
X37697Y10241D01*
X37702Y10216D01*
X37710Y10193D01*
X37711Y10192D01*
X37711Y10190D01*
X37713Y10187D01*
X37715Y10183D01*
X37717Y10178D01*
X37720Y10172D01*
X37724Y10166D01*
X37728Y10159D01*
X37733Y10152D01*
X37738Y10144D01*
X37745Y10137D01*
X37751Y10129D01*
X37758Y10122D01*
X37766Y10115D01*
X37775Y10109D01*
X37784Y10102D01*
X37784Y10102D01*
X37786Y10101D01*
X37789Y10100D01*
X37793Y10098D01*
X37797Y10096D01*
X37803Y10093D01*
X37809Y10090D01*
X37816Y10087D01*
X37824Y10085D01*
X37833Y10082D01*
X37841Y10080D01*
X37851Y10077D01*
X37871Y10074D01*
X37882Y10073D01*
X37892Y10073D01*
X37896D01*
X37899Y10073D01*
X37904D01*
X37910Y10074D01*
X37917Y10075D01*
X37926Y10076D01*
X37934Y10078D01*
X37943Y10080D01*
X37953Y10082D01*
X37963Y10086D01*
X37973Y10090D01*
X37983Y10094D01*
X37993Y10100D01*
X38003Y10106D01*
X38013Y10113D01*
X38013Y10113D01*
X38015Y10115D01*
X38017Y10117D01*
X38020Y10121D01*
X38025Y10125D01*
X38029Y10130D01*
X38034Y10136D01*
X38040Y10143D01*
X38045Y10152D01*
X38051Y10161D01*
X38056Y10171D01*
X38062Y10182D01*
X38067Y10193D01*
X38072Y10206D01*
X38076Y10220D01*
X38080Y10234D01*
X38164Y10213D01*
Y10213D01*
X38164Y10212D01*
Y10210D01*
X38163Y10209D01*
X38161Y10203D01*
X38159Y10196D01*
X38156Y10187D01*
X38152Y10177D01*
X38148Y10166D01*
X38142Y10154D01*
X38136Y10142D01*
X38129Y10128D01*
X38122Y10115D01*
X38113Y10102D01*
X38103Y10089D01*
X38092Y10077D01*
X38081Y10065D01*
X38068Y10054D01*
X38068Y10054D01*
X38065Y10052D01*
X38061Y10049D01*
X38056Y10046D01*
X38050Y10042D01*
X38041Y10037D01*
X38032Y10032D01*
X38021Y10027D01*
X38010Y10022D01*
X37997Y10017D01*
X37983Y10013D01*
X37968Y10008D01*
X37952Y10005D01*
X37936Y10002D01*
X37918Y10001D01*
X37900Y10000D01*
X37895D01*
X37890Y10001D01*
X37882D01*
X37874Y10001D01*
X37864Y10002D01*
X37852Y10003D01*
X37840Y10005D01*
X37827Y10007D01*
X37813Y10010D01*
X37799Y10013D01*
X37785Y10018D01*
X37771Y10022D01*
X37758Y10028D01*
X37745Y10034D01*
X37732Y10042D01*
X37731Y10042D01*
X37729Y10044D01*
X37726Y10046D01*
X37721Y10049D01*
X37716Y10054D01*
X37710Y10059D01*
X37702Y10065D01*
X37695Y10073D01*
X37687Y10081D01*
X37679Y10090D01*
X37671Y10100D01*
X37663Y10111D01*
X37655Y10122D01*
X37647Y10135D01*
X37640Y10149D01*
X37633Y10163D01*
X37633Y10164D01*
X37632Y10167D01*
X37630Y10171D01*
X37628Y10177D01*
X37625Y10184D01*
X37623Y10193D01*
X37620Y10203D01*
X37617Y10215D01*
X37613Y10227D01*
X37611Y10240D01*
X37608Y10254D01*
X37605Y10269D01*
X37603Y10285D01*
X37602Y10301D01*
X37601Y10317D01*
X37600Y10334D01*
Y10335D01*
Y10336D01*
Y10339D01*
Y10344D01*
X37601Y10351D01*
X37601Y10360D01*
X37602Y10370D01*
X37603Y10381D01*
X37605Y10394D01*
X37607Y10407D01*
X37609Y10421D01*
X37612Y10435D01*
X37616Y10450D01*
X37620Y10465D01*
X37625Y10480D01*
X37631Y10494D01*
X37638Y10508D01*
X37638Y10509D01*
X37639Y10512D01*
X37642Y10516D01*
X37645Y10520D01*
X37649Y10527D01*
X37654Y10534D01*
X37659Y10542D01*
X37665Y10550D01*
X37673Y10559D01*
X37681Y10569D01*
X37690Y10578D01*
X37700Y10587D01*
X37710Y10596D01*
X37721Y10605D01*
X37733Y10614D01*
X37746Y10621D01*
X37747Y10622D01*
X37749Y10623D01*
X37753Y10625D01*
X37758Y10627D01*
X37765Y10630D01*
X37773Y10633D01*
X37782Y10637D01*
X37792Y10641D01*
X37803Y10645D01*
X37815Y10648D01*
X37828Y10651D01*
X37841Y10654D01*
X37855Y10657D01*
X37870Y10658D01*
X37885Y10659D01*
X37901Y10660D01*
X37905D01*
X37910Y10659D01*
D02*
G37*
G36*
X38532Y10011D02*
X38453D01*
Y10509D01*
X38453Y10509D01*
X38452Y10508D01*
X38451Y10507D01*
X38448Y10505D01*
X38445Y10502D01*
X38442Y10499D01*
X38438Y10496D01*
X38433Y10492D01*
X38422Y10484D01*
X38410Y10475D01*
X38395Y10465D01*
X38379Y10455D01*
X38378Y10455D01*
X38376Y10454D01*
X38374Y10452D01*
X38371Y10451D01*
X38367Y10448D01*
X38362Y10446D01*
X38357Y10443D01*
X38351Y10440D01*
X38339Y10434D01*
X38325Y10427D01*
X38310Y10420D01*
X38297Y10415D01*
Y10491D01*
X38297Y10491D01*
X38299Y10492D01*
X38303Y10494D01*
X38308Y10496D01*
X38313Y10499D01*
X38320Y10503D01*
X38327Y10507D01*
X38335Y10512D01*
X38344Y10517D01*
X38353Y10523D01*
X38372Y10535D01*
X38392Y10550D01*
X38411Y10565D01*
X38412Y10566D01*
X38413Y10568D01*
X38416Y10570D01*
X38419Y10573D01*
X38423Y10577D01*
X38428Y10581D01*
X38433Y10587D01*
X38438Y10592D01*
X38450Y10606D01*
X38462Y10620D01*
X38472Y10636D01*
X38477Y10643D01*
X38481Y10651D01*
X38532D01*
Y10011D01*
D02*
G37*
D10*
X36200Y13600D02*
X38600D01*
Y12400D02*
Y13600D01*
X36200Y12400D02*
X38600D01*
X36200D02*
Y13600D01*
X36400Y9400D02*
Y10600D01*
Y9400D02*
X38800D01*
Y10600D01*
X36400D02*
X38800D01*
M02*
