G04*
G04 #@! TF.GenerationSoftware,Altium Limited,Altium Designer,25.8.1 (18)*
G04*
G04 Layer_Color=65535*
%FSLAX43Y43*%
%MOMM*%
G71*
G04*
G04 #@! TF.SameCoordinates,C5D238D6-C719-4FEA-94BB-68492B5BFC98*
G04*
G04*
G04 #@! TF.FilePolarity,Positive*
G04*
G01*
G75*
%ADD10C,0.200*%
%ADD11C,0.250*%
%ADD12C,0.254*%
D10*
X43335Y11934D02*
G03*
X43335Y8066I-1335J-1934D01*
G01*
X35335Y11934D02*
G03*
X35335Y8066I-1335J-1934D01*
G01*
X36525Y13850D02*
X38275D01*
X36530Y12147D02*
X38280D01*
X36730Y9147D02*
X38480D01*
X36725Y10850D02*
X38475D01*
X27730Y5000D02*
Y10460D01*
Y5000D02*
X30270D01*
Y10460D01*
X27730D02*
X30270D01*
X43335Y8066D02*
Y11934D01*
X35335Y8066D02*
Y11934D01*
D11*
X42125Y7050D02*
G03*
X42125Y7050I-125J0D01*
G01*
X34125D02*
G03*
X34125Y7050I-125J0D01*
G01*
D12*
X37730Y238D02*
Y1762D01*
X38492D01*
X38746Y1508D01*
Y1000D01*
X38492Y746D01*
X37730D01*
X38238D02*
X38746Y238D01*
X40016D02*
Y1762D01*
X39254Y1000D01*
X40270D01*
X28730Y2238D02*
Y3762D01*
X29492D01*
X29746Y3508D01*
Y3000D01*
X29492Y2746D01*
X28730D01*
X29238D02*
X29746Y2238D01*
X30254Y3508D02*
X30508Y3762D01*
X31016D01*
X31270Y3508D01*
Y3254D01*
X31016Y3000D01*
X30762D01*
X31016D01*
X31270Y2746D01*
Y2492D01*
X31016Y2238D01*
X30508D01*
X30254Y2492D01*
X43730Y3238D02*
Y4762D01*
X44492D01*
X44746Y4508D01*
Y4000D01*
X44492Y3746D01*
X43730D01*
X44238D02*
X44746Y3238D01*
X46270D02*
X45254D01*
X46270Y4254D01*
Y4508D01*
X46016Y4762D01*
X45508D01*
X45254Y4508D01*
X33984Y238D02*
Y1762D01*
X34746D01*
X35000Y1508D01*
Y1000D01*
X34746Y746D01*
X33984D01*
X34492D02*
X35000Y238D01*
X35508D02*
X36016D01*
X35762D01*
Y1762D01*
X35508Y1508D01*
X40805Y13503D02*
Y14519D01*
X40551Y14773D01*
X40043D01*
X39789Y14519D01*
Y13503D01*
X40043Y13249D01*
X40551D01*
X40297Y13757D02*
X40805Y13249D01*
X40551D02*
X40805Y13503D01*
X42328Y13249D02*
X41313D01*
X42328Y14265D01*
Y14519D01*
X42074Y14773D01*
X41566D01*
X41313Y14519D01*
X32804Y13503D02*
Y14519D01*
X32550Y14773D01*
X32042D01*
X31788Y14519D01*
Y13503D01*
X32042Y13249D01*
X32550D01*
X32296Y13757D02*
X32804Y13249D01*
X32550D02*
X32804Y13503D01*
X33312Y13249D02*
X33819D01*
X33565D01*
Y14773D01*
X33312Y14519D01*
X27724Y11471D02*
Y12995D01*
X28486D01*
X28740Y12741D01*
Y12233D01*
X28486Y11979D01*
X27724D01*
X29248Y11471D02*
X29755D01*
X29501D01*
Y12995D01*
X29248Y12741D01*
X36546Y16508D02*
X36292Y16762D01*
X35784D01*
X35530Y16508D01*
Y15492D01*
X35784Y15238D01*
X36292D01*
X36546Y15492D01*
X38070Y15238D02*
X37054D01*
X38070Y16254D01*
Y16508D01*
X37816Y16762D01*
X37308D01*
X37054Y16508D01*
X38000Y7508D02*
X37746Y7762D01*
X37238D01*
X36984Y7508D01*
Y6492D01*
X37238Y6238D01*
X37746D01*
X38000Y6492D01*
X38508Y6238D02*
X39016D01*
X38762D01*
Y7762D01*
X38508Y7508D01*
M02*
